<svg width="703" height="764" viewBox="0 0 703 764" fill="none" xmlns="http://www.w3.org/2000/svg">
<g filter="url(#filter0_dddddd_636_30307)">
<circle cx="382" cy="382" r="244" fill="black"/>
</g>
<path d="M258.646 284.489C259.179 284.027 259.607 283.456 259.901 282.814C260.194 282.172 260.346 281.475 260.346 280.769C260.346 279.443 259.819 278.171 258.881 277.234C257.944 276.296 256.672 275.769 255.346 275.769C254.02 275.769 252.748 276.296 251.81 277.234C250.872 278.171 250.346 279.443 250.346 280.769C250.346 281.475 250.498 282.172 250.791 282.814C251.084 283.456 251.512 284.027 252.046 284.489C250.646 285.123 249.458 286.147 248.625 287.438C247.791 288.729 247.347 290.233 247.346 291.769C247.346 292.035 247.451 292.289 247.639 292.476C247.826 292.664 248.08 292.769 248.346 292.769C248.611 292.769 248.865 292.664 249.053 292.476C249.24 292.289 249.346 292.035 249.346 291.769C249.346 290.178 249.978 288.652 251.103 287.527C252.228 286.401 253.754 285.769 255.346 285.769C256.937 285.769 258.463 286.401 259.588 287.527C260.714 288.652 261.346 290.178 261.346 291.769C261.346 292.035 261.451 292.289 261.639 292.476C261.826 292.664 262.08 292.769 262.346 292.769C262.611 292.769 262.865 292.664 263.053 292.476C263.24 292.289 263.346 292.035 263.346 291.769C263.344 290.233 262.9 288.729 262.067 287.438C261.233 286.147 260.046 285.123 258.646 284.489ZM255.346 283.769C254.752 283.769 254.172 283.593 253.679 283.264C253.186 282.934 252.801 282.466 252.574 281.917C252.347 281.369 252.288 280.766 252.403 280.184C252.519 279.602 252.805 279.068 253.224 278.648C253.644 278.228 254.178 277.943 254.76 277.827C255.342 277.711 255.946 277.771 256.494 277.998C257.042 278.225 257.51 278.609 257.84 279.103C258.17 279.596 258.346 280.176 258.346 280.769C258.346 281.565 258.03 282.328 257.467 282.891C256.904 283.453 256.141 283.769 255.346 283.769ZM265.086 284.089C265.726 283.369 266.144 282.478 266.29 281.526C266.435 280.573 266.303 279.598 265.907 278.719C265.512 277.84 264.871 277.094 264.062 276.571C263.253 276.047 262.31 275.769 261.346 275.769C261.08 275.769 260.826 275.875 260.639 276.062C260.451 276.25 260.346 276.504 260.346 276.769C260.346 277.035 260.451 277.289 260.639 277.476C260.826 277.664 261.08 277.769 261.346 277.769C262.141 277.769 262.904 278.085 263.467 278.648C264.03 279.211 264.346 279.974 264.346 280.769C264.344 281.295 264.205 281.81 263.942 282.265C263.679 282.719 263.301 283.097 262.846 283.359C262.697 283.445 262.574 283.567 262.486 283.714C262.399 283.861 262.35 284.028 262.346 284.199C262.342 284.369 262.381 284.537 262.459 284.688C262.538 284.838 262.654 284.966 262.796 285.059L263.186 285.319L263.316 285.389C264.521 285.961 265.538 286.865 266.247 287.996C266.955 289.126 267.326 290.435 267.316 291.769C267.316 292.035 267.421 292.289 267.609 292.476C267.796 292.664 268.05 292.769 268.316 292.769C268.581 292.769 268.835 292.664 269.023 292.476C269.21 292.289 269.316 292.035 269.316 291.769C269.324 290.235 268.94 288.724 268.199 287.379C267.459 286.035 266.387 284.903 265.086 284.089Z" fill="#F9FAFB"/>
<path d="M296.435 277.79H298.007V286.384C298.007 287.271 297.797 288.063 297.379 288.76C296.965 289.453 296.38 290 295.624 290.402C294.867 290.799 293.98 290.997 292.962 290.997C291.944 290.997 291.057 290.799 290.3 290.402C289.544 290 288.957 289.453 288.538 288.76C288.124 288.063 287.917 287.271 287.917 286.384V277.79H289.489V286.257C289.489 286.891 289.628 287.455 289.907 287.949C290.186 288.439 290.583 288.826 291.099 289.109C291.618 289.388 292.239 289.527 292.962 289.527C293.684 289.527 294.305 289.388 294.825 289.109C295.345 288.826 295.742 288.439 296.017 287.949C296.295 287.455 296.435 286.891 296.435 286.257V277.79ZM307.837 283.215L306.494 283.595C306.409 283.371 306.285 283.154 306.12 282.943C305.959 282.727 305.74 282.55 305.461 282.41C305.182 282.271 304.825 282.201 304.39 282.201C303.794 282.201 303.298 282.338 302.901 282.613C302.508 282.883 302.311 283.228 302.311 283.646C302.311 284.018 302.446 284.311 302.717 284.527C302.987 284.742 303.41 284.922 303.984 285.066L305.429 285.421C306.3 285.632 306.948 285.955 307.375 286.39C307.802 286.821 308.015 287.377 308.015 288.057C308.015 288.615 307.854 289.113 307.533 289.553C307.216 289.992 306.773 290.338 306.202 290.592C305.632 290.845 304.969 290.972 304.212 290.972C303.22 290.972 302.398 290.757 301.747 290.326C301.097 289.895 300.685 289.265 300.511 288.437L301.931 288.082C302.066 288.606 302.322 288.999 302.698 289.261C303.078 289.523 303.574 289.654 304.187 289.654C304.884 289.654 305.438 289.506 305.848 289.21C306.262 288.91 306.469 288.551 306.469 288.133C306.469 287.795 306.35 287.512 306.114 287.284C305.877 287.051 305.514 286.878 305.024 286.764L303.401 286.384C302.51 286.173 301.855 285.845 301.437 285.401C301.023 284.954 300.816 284.394 300.816 283.722C300.816 283.173 300.97 282.687 301.278 282.264C301.591 281.842 302.015 281.51 302.552 281.27C303.093 281.029 303.705 280.908 304.39 280.908C305.353 280.908 306.109 281.12 306.659 281.542C307.212 281.965 307.605 282.522 307.837 283.215ZM314.348 290.972C313.41 290.972 312.601 290.765 311.92 290.351C311.244 289.933 310.723 289.35 310.355 288.602C309.992 287.85 309.81 286.975 309.81 285.978C309.81 284.981 309.992 284.102 310.355 283.342C310.723 282.577 311.234 281.981 311.889 281.555C312.548 281.124 313.317 280.908 314.195 280.908C314.702 280.908 315.203 280.993 315.697 281.162C316.192 281.331 316.642 281.605 317.047 281.986C317.453 282.362 317.776 282.86 318.017 283.481C318.258 284.102 318.378 284.867 318.378 285.775V286.409H310.875V285.116H316.857C316.857 284.567 316.747 284.077 316.528 283.646C316.312 283.215 316.004 282.875 315.602 282.626C315.205 282.376 314.736 282.252 314.195 282.252C313.6 282.252 313.084 282.4 312.649 282.695C312.218 282.987 311.887 283.367 311.654 283.836C311.422 284.305 311.306 284.808 311.306 285.344V286.206C311.306 286.941 311.432 287.565 311.686 288.076C311.944 288.583 312.301 288.969 312.757 289.236C313.213 289.498 313.743 289.629 314.348 289.629C314.74 289.629 315.095 289.574 315.412 289.464C315.733 289.35 316.01 289.181 316.242 288.957C316.475 288.729 316.654 288.446 316.781 288.108L318.226 288.513C318.074 289.003 317.818 289.434 317.459 289.806C317.1 290.174 316.656 290.461 316.128 290.668C315.6 290.871 315.007 290.972 314.348 290.972ZM320.653 290.769V281.035H322.098V282.505H322.2C322.377 282.024 322.698 281.633 323.163 281.333C323.628 281.033 324.152 280.883 324.735 280.883C324.844 280.883 324.982 280.885 325.147 280.889C325.311 280.893 325.436 280.9 325.52 280.908V282.429C325.47 282.417 325.354 282.398 325.172 282.372C324.994 282.343 324.806 282.328 324.608 282.328C324.135 282.328 323.712 282.427 323.34 282.626C322.973 282.82 322.681 283.09 322.466 283.437C322.255 283.779 322.149 284.17 322.149 284.609V290.769H320.653ZM334.188 283.215L332.845 283.595C332.76 283.371 332.636 283.154 332.471 282.943C332.31 282.727 332.091 282.55 331.812 282.41C331.533 282.271 331.176 282.201 330.741 282.201C330.145 282.201 329.649 282.338 329.252 282.613C328.859 282.883 328.662 283.228 328.662 283.646C328.662 284.018 328.797 284.311 329.068 284.527C329.338 284.742 329.761 284.922 330.335 285.066L331.78 285.421C332.651 285.632 333.299 285.955 333.726 286.39C334.153 286.821 334.366 287.377 334.366 288.057C334.366 288.615 334.205 289.113 333.884 289.553C333.567 289.992 333.124 290.338 332.553 290.592C331.983 290.845 331.32 290.972 330.563 290.972C329.571 290.972 328.749 290.757 328.098 290.326C327.448 289.895 327.036 289.265 326.862 288.437L328.282 288.082C328.417 288.606 328.673 288.999 329.049 289.261C329.429 289.523 329.925 289.654 330.538 289.654C331.235 289.654 331.789 289.506 332.198 289.21C332.613 288.91 332.82 288.551 332.82 288.133C332.82 287.795 332.701 287.512 332.465 287.284C332.228 287.051 331.865 286.878 331.375 286.764L329.752 286.384C328.861 286.173 328.206 285.845 327.788 285.401C327.374 284.954 327.167 284.394 327.167 283.722C327.167 283.173 327.321 282.687 327.629 282.264C327.942 281.842 328.366 281.51 328.903 281.27C329.444 281.029 330.056 280.908 330.741 280.908C331.704 280.908 332.46 281.12 333.01 281.542C333.563 281.965 333.956 282.522 334.188 283.215ZM341.636 290.769V281.035H343.081V282.505H343.183C343.36 282.024 343.681 281.633 344.146 281.333C344.611 281.033 345.135 280.883 345.718 280.883C345.828 280.883 345.965 280.885 346.13 280.889C346.294 280.893 346.419 280.9 346.504 280.908V282.429C346.453 282.417 346.337 282.398 346.155 282.372C345.978 282.343 345.79 282.328 345.591 282.328C345.118 282.328 344.695 282.427 344.324 282.626C343.956 282.82 343.664 283.09 343.449 283.437C343.238 283.779 343.132 284.17 343.132 284.609V290.769H341.636ZM352.062 290.972C351.124 290.972 350.314 290.765 349.634 290.351C348.958 289.933 348.437 289.35 348.069 288.602C347.706 287.85 347.524 286.975 347.524 285.978C347.524 284.981 347.706 284.102 348.069 283.342C348.437 282.577 348.948 281.981 349.603 281.555C350.262 281.124 351.031 280.908 351.909 280.908C352.416 280.908 352.917 280.993 353.411 281.162C353.906 281.331 354.356 281.605 354.761 281.986C355.167 282.362 355.49 282.86 355.731 283.481C355.972 284.102 356.092 284.867 356.092 285.775V286.409H348.589V285.116H354.571C354.571 284.567 354.461 284.077 354.242 283.646C354.026 283.215 353.718 282.875 353.316 282.626C352.919 282.376 352.45 282.252 351.909 282.252C351.314 282.252 350.798 282.4 350.363 282.695C349.932 282.987 349.6 283.367 349.368 283.836C349.136 284.305 349.02 284.808 349.02 285.344V286.206C349.02 286.941 349.146 287.565 349.4 288.076C349.658 288.583 350.015 288.969 350.471 289.236C350.927 289.498 351.457 289.629 352.062 289.629C352.454 289.629 352.809 289.574 353.126 289.464C353.447 289.35 353.724 289.181 353.956 288.957C354.189 288.729 354.368 288.446 354.495 288.108L355.94 288.513C355.788 289.003 355.532 289.434 355.173 289.806C354.814 290.174 354.37 290.461 353.842 290.668C353.314 290.871 352.721 290.972 352.062 290.972ZM362.296 294.622C361.574 294.622 360.953 294.529 360.433 294.344C359.914 294.162 359.48 293.921 359.134 293.621C358.792 293.325 358.519 293.009 358.317 292.671L359.508 291.834C359.643 292.011 359.814 292.214 360.021 292.442C360.228 292.675 360.511 292.875 360.871 293.044C361.234 293.218 361.709 293.304 362.296 293.304C363.082 293.304 363.731 293.114 364.242 292.734C364.753 292.354 365.009 291.758 365.009 290.947V288.969H364.882C364.772 289.147 364.616 289.367 364.413 289.629C364.215 289.886 363.927 290.117 363.551 290.319C363.179 290.518 362.677 290.617 362.043 290.617C361.257 290.617 360.552 290.431 359.926 290.059C359.305 289.688 358.813 289.147 358.45 288.437C358.09 287.727 357.911 286.865 357.911 285.851C357.911 284.854 358.086 283.986 358.437 283.247C358.788 282.503 359.276 281.929 359.901 281.523C360.526 281.113 361.249 280.908 362.068 280.908C362.702 280.908 363.205 281.014 363.577 281.225C363.953 281.432 364.24 281.669 364.438 281.935C364.641 282.197 364.798 282.412 364.907 282.581H365.06V281.035H366.504V291.048C366.504 291.885 366.314 292.565 365.934 293.089C365.558 293.617 365.051 294.003 364.413 294.249C363.779 294.498 363.074 294.622 362.296 294.622ZM362.246 289.274C362.846 289.274 363.353 289.136 363.767 288.862C364.181 288.587 364.496 288.192 364.711 287.677C364.926 287.161 365.034 286.544 365.034 285.826C365.034 285.125 364.929 284.506 364.717 283.969C364.506 283.433 364.193 283.012 363.779 282.708C363.365 282.404 362.854 282.252 362.246 282.252C361.612 282.252 361.084 282.412 360.661 282.733C360.243 283.055 359.928 283.485 359.717 284.026C359.51 284.567 359.407 285.167 359.407 285.826C359.407 286.502 359.512 287.1 359.723 287.62C359.939 288.135 360.256 288.541 360.674 288.836C361.097 289.128 361.62 289.274 362.246 289.274ZM369.242 290.769V281.035H370.738V290.769H369.242ZM370.003 279.413C369.711 279.413 369.46 279.313 369.249 279.115C369.042 278.916 368.938 278.678 368.938 278.399C368.938 278.12 369.042 277.881 369.249 277.683C369.46 277.484 369.711 277.385 370.003 277.385C370.294 277.385 370.544 277.484 370.751 277.683C370.962 277.881 371.067 278.12 371.067 278.399C371.067 278.678 370.962 278.916 370.751 279.115C370.544 279.313 370.294 279.413 370.003 279.413ZM380.372 283.215L379.029 283.595C378.944 283.371 378.82 283.154 378.655 282.943C378.494 282.727 378.275 282.55 377.996 282.41C377.717 282.271 377.36 282.201 376.925 282.201C376.329 282.201 375.833 282.338 375.435 282.613C375.043 282.883 374.846 283.228 374.846 283.646C374.846 284.018 374.981 284.311 375.252 284.527C375.522 284.742 375.945 284.922 376.519 285.066L377.964 285.421C378.834 285.632 379.483 285.955 379.91 286.39C380.336 286.821 380.55 287.377 380.55 288.057C380.55 288.615 380.389 289.113 380.068 289.553C379.751 289.992 379.308 290.338 378.737 290.592C378.167 290.845 377.504 290.972 376.747 290.972C375.754 290.972 374.933 290.757 374.282 290.326C373.631 289.895 373.219 289.265 373.046 288.437L374.466 288.082C374.601 288.606 374.857 288.999 375.233 289.261C375.613 289.523 376.109 289.654 376.722 289.654C377.419 289.654 377.973 289.506 378.382 289.21C378.796 288.91 379.003 288.551 379.003 288.133C379.003 287.795 378.885 287.512 378.649 287.284C378.412 287.051 378.049 286.878 377.558 286.764L375.936 286.384C375.045 286.173 374.39 285.845 373.972 285.401C373.557 284.954 373.35 284.394 373.35 283.722C373.35 283.173 373.505 282.687 373.813 282.264C374.126 281.842 374.55 281.51 375.087 281.27C375.628 281.029 376.24 280.908 376.925 280.908C377.888 280.908 378.644 281.12 379.194 281.542C379.747 281.965 380.14 282.522 380.372 283.215ZM387.035 281.035V282.303H381.99V281.035H387.035ZM383.46 278.703H384.956V287.981C384.956 288.403 385.017 288.72 385.14 288.931C385.266 289.138 385.427 289.278 385.621 289.35C385.82 289.417 386.029 289.451 386.249 289.451C386.413 289.451 386.549 289.443 386.654 289.426C386.76 289.405 386.844 289.388 386.908 289.375L387.212 290.719C387.111 290.757 386.969 290.795 386.787 290.833C386.606 290.875 386.375 290.896 386.097 290.896C385.674 290.896 385.26 290.805 384.854 290.624C384.453 290.442 384.119 290.165 383.853 289.793C383.591 289.422 383.46 288.953 383.46 288.386V278.703ZM393.261 290.972C392.323 290.972 391.514 290.765 390.834 290.351C390.158 289.933 389.636 289.35 389.268 288.602C388.905 287.85 388.723 286.975 388.723 285.978C388.723 284.981 388.905 284.102 389.268 283.342C389.636 282.577 390.147 281.981 390.802 281.555C391.461 281.124 392.23 280.908 393.109 280.908C393.616 280.908 394.117 280.993 394.611 281.162C395.105 281.331 395.555 281.605 395.961 281.986C396.366 282.362 396.69 282.86 396.93 283.481C397.171 284.102 397.292 284.867 397.292 285.775V286.409H389.788V285.116H395.771C395.771 284.567 395.661 284.077 395.441 283.646C395.226 283.215 394.917 282.875 394.516 282.626C394.119 282.376 393.65 282.252 393.109 282.252C392.513 282.252 391.998 282.4 391.563 282.695C391.132 282.987 390.8 283.367 390.568 283.836C390.335 284.305 390.219 284.808 390.219 285.344V286.206C390.219 286.941 390.346 287.565 390.599 288.076C390.857 288.583 391.214 288.969 391.67 289.236C392.127 289.498 392.657 289.629 393.261 289.629C393.654 289.629 394.009 289.574 394.326 289.464C394.647 289.35 394.924 289.181 395.156 288.957C395.388 288.729 395.568 288.446 395.695 288.108L397.14 288.513C396.987 289.003 396.732 289.434 396.373 289.806C396.014 290.174 395.57 290.461 395.042 290.668C394.514 290.871 393.92 290.972 393.261 290.972ZM399.567 290.769V281.035H401.012V282.505H401.113C401.291 282.024 401.612 281.633 402.076 281.333C402.541 281.033 403.065 280.883 403.648 280.883C403.758 280.883 403.895 280.885 404.06 280.889C404.225 280.893 404.349 280.9 404.434 280.908V282.429C404.383 282.417 404.267 282.398 404.085 282.372C403.908 282.343 403.72 282.328 403.521 282.328C403.048 282.328 402.626 282.427 402.254 282.626C401.886 282.82 401.595 283.09 401.379 283.437C401.168 283.779 401.062 284.17 401.062 284.609V290.769H399.567ZM409.992 290.972C409.054 290.972 408.245 290.765 407.565 290.351C406.889 289.933 406.367 289.35 405.999 288.602C405.636 287.85 405.454 286.975 405.454 285.978C405.454 284.981 405.636 284.102 405.999 283.342C406.367 282.577 406.878 281.981 407.533 281.555C408.192 281.124 408.961 280.908 409.84 280.908C410.347 280.908 410.847 280.993 411.342 281.162C411.836 281.331 412.286 281.605 412.692 281.986C413.097 282.362 413.42 282.86 413.661 283.481C413.902 284.102 414.022 284.867 414.022 285.775V286.409H406.519V285.116H412.501C412.501 284.567 412.392 284.077 412.172 283.646C411.956 283.215 411.648 282.875 411.247 282.626C410.849 282.376 410.38 282.252 409.84 282.252C409.244 282.252 408.729 282.4 408.293 282.695C407.862 282.987 407.531 283.367 407.298 283.836C407.066 284.305 406.95 284.808 406.95 285.344V286.206C406.95 286.941 407.077 287.565 407.33 288.076C407.588 288.583 407.945 288.969 408.401 289.236C408.857 289.498 409.388 289.629 409.992 289.629C410.385 289.629 410.74 289.574 411.056 289.464C411.378 289.35 411.654 289.181 411.887 288.957C412.119 288.729 412.299 288.446 412.425 288.108L413.87 288.513C413.718 289.003 413.463 289.434 413.103 289.806C412.744 290.174 412.301 290.461 411.773 290.668C411.244 290.871 410.651 290.972 409.992 290.972ZM419.973 290.972C419.162 290.972 418.446 290.767 417.825 290.357C417.204 289.943 416.718 289.36 416.367 288.608C416.017 287.852 415.841 286.958 415.841 285.928C415.841 284.905 416.017 284.018 416.367 283.266C416.718 282.514 417.206 281.933 417.831 281.523C418.456 281.113 419.179 280.908 419.999 280.908C420.632 280.908 421.133 281.014 421.501 281.225C421.872 281.432 422.155 281.669 422.35 281.935C422.548 282.197 422.703 282.412 422.812 282.581H422.939V277.79H424.435V290.769H422.99V289.274H422.812C422.703 289.451 422.546 289.675 422.343 289.945C422.141 290.212 421.851 290.45 421.475 290.662C421.099 290.869 420.599 290.972 419.973 290.972ZM420.176 289.629C420.776 289.629 421.283 289.472 421.697 289.16C422.111 288.843 422.426 288.405 422.641 287.848C422.857 287.286 422.964 286.637 422.964 285.902C422.964 285.175 422.859 284.54 422.648 283.995C422.436 283.445 422.124 283.019 421.71 282.714C421.296 282.406 420.784 282.252 420.176 282.252C419.542 282.252 419.014 282.414 418.592 282.74C418.173 283.061 417.859 283.498 417.647 284.052C417.44 284.601 417.337 285.218 417.337 285.902C417.337 286.595 417.442 287.225 417.654 287.791C417.869 288.353 418.186 288.8 418.604 289.134C419.027 289.464 419.551 289.629 420.176 289.629ZM436.355 290.972C435.477 290.972 434.706 290.763 434.042 290.345C433.383 289.926 432.868 289.341 432.496 288.589C432.128 287.837 431.945 286.958 431.945 285.953C431.945 284.939 432.128 284.054 432.496 283.297C432.868 282.541 433.383 281.954 434.042 281.536C434.706 281.117 435.477 280.908 436.355 280.908C437.234 280.908 438.003 281.117 438.662 281.536C439.326 281.954 439.841 282.541 440.209 283.297C440.58 284.054 440.766 284.939 440.766 285.953C440.766 286.958 440.58 287.837 440.209 288.589C439.841 289.341 439.326 289.926 438.662 290.345C438.003 290.763 437.234 290.972 436.355 290.972ZM436.355 289.629C437.023 289.629 437.572 289.457 438.003 289.115C438.434 288.773 438.753 288.323 438.96 287.765C439.167 287.208 439.271 286.603 439.271 285.953C439.271 285.302 439.167 284.696 438.96 284.134C438.753 283.572 438.434 283.118 438.003 282.771C437.572 282.425 437.023 282.252 436.355 282.252C435.688 282.252 435.139 282.425 434.708 282.771C434.277 283.118 433.958 283.572 433.751 284.134C433.544 284.696 433.44 285.302 433.44 285.953C433.44 286.603 433.544 287.208 433.751 287.765C433.958 288.323 434.277 288.773 434.708 289.115C435.139 289.457 435.688 289.629 436.355 289.629ZM444.545 284.914V290.769H443.049V281.035H444.494V282.556H444.621C444.849 282.062 445.196 281.665 445.66 281.365C446.125 281.06 446.725 280.908 447.46 280.908C448.119 280.908 448.696 281.043 449.19 281.314C449.685 281.58 450.069 281.986 450.344 282.531C450.618 283.071 450.756 283.756 450.756 284.584V290.769H449.26V284.685C449.26 283.921 449.061 283.325 448.664 282.898C448.267 282.467 447.722 282.252 447.029 282.252C446.552 282.252 446.125 282.355 445.749 282.562C445.377 282.769 445.084 283.071 444.868 283.469C444.653 283.866 444.545 284.347 444.545 284.914ZM460.713 290.769L457.747 281.035H459.319L461.423 288.488H461.524L463.603 281.035H465.2L467.253 288.462H467.355L469.459 281.035H471.031L468.065 290.769H466.594L464.465 283.291H464.313L462.184 290.769H460.713ZM475.872 290.997C475.256 290.997 474.696 290.881 474.193 290.649C473.69 290.412 473.291 290.072 472.995 289.629C472.699 289.181 472.552 288.64 472.552 288.006C472.552 287.448 472.661 286.996 472.881 286.65C473.101 286.299 473.394 286.025 473.762 285.826C474.13 285.628 474.535 285.48 474.979 285.382C475.427 285.281 475.877 285.201 476.329 285.142C476.92 285.066 477.4 285.009 477.767 284.971C478.139 284.928 478.409 284.859 478.578 284.761C478.752 284.664 478.838 284.495 478.838 284.254V284.204C478.838 283.578 478.667 283.093 478.325 282.746C477.987 282.4 477.474 282.226 476.785 282.226C476.071 282.226 475.511 282.383 475.106 282.695C474.7 283.008 474.415 283.342 474.25 283.697L472.83 283.19C473.084 282.598 473.422 282.138 473.844 281.808C474.271 281.474 474.736 281.242 475.239 281.111C475.746 280.976 476.244 280.908 476.734 280.908C477.047 280.908 477.406 280.946 477.812 281.022C478.221 281.094 478.616 281.244 478.997 281.472C479.381 281.7 479.7 282.045 479.954 282.505C480.207 282.966 480.334 283.583 480.334 284.356V290.769H478.838V289.451H478.762C478.661 289.662 478.492 289.888 478.255 290.129C478.019 290.37 477.704 290.575 477.311 290.744C476.918 290.913 476.439 290.997 475.872 290.997ZM476.101 289.654C476.692 289.654 477.191 289.538 477.596 289.305C478.006 289.073 478.314 288.773 478.521 288.405C478.733 288.038 478.838 287.651 478.838 287.246V285.877C478.775 285.953 478.635 286.023 478.42 286.086C478.209 286.145 477.964 286.198 477.685 286.244C477.41 286.287 477.142 286.325 476.88 286.358C476.622 286.388 476.413 286.413 476.253 286.434C475.864 286.485 475.501 286.568 475.163 286.682C474.829 286.792 474.558 286.958 474.351 287.182C474.149 287.402 474.047 287.702 474.047 288.082C474.047 288.602 474.239 288.995 474.624 289.261C475.013 289.523 475.505 289.654 476.101 289.654ZM483.064 290.769V281.035H484.559V290.769H483.064ZM483.824 279.413C483.533 279.413 483.281 279.313 483.07 279.115C482.863 278.916 482.76 278.678 482.76 278.399C482.76 278.12 482.863 277.881 483.07 277.683C483.281 277.484 483.533 277.385 483.824 277.385C484.116 277.385 484.365 277.484 484.572 277.683C484.783 277.881 484.889 278.12 484.889 278.399C484.889 278.678 484.783 278.916 484.572 279.115C484.365 279.313 484.116 279.413 483.824 279.413ZM491.532 281.035V282.303H486.488V281.035H491.532ZM487.958 278.703H489.453V287.981C489.453 288.403 489.515 288.72 489.637 288.931C489.764 289.138 489.925 289.278 490.119 289.35C490.317 289.417 490.527 289.451 490.746 289.451C490.911 289.451 491.046 289.443 491.152 289.426C491.257 289.405 491.342 289.388 491.405 289.375L491.71 290.719C491.608 290.757 491.467 290.795 491.285 290.833C491.103 290.875 490.873 290.896 490.594 290.896C490.172 290.896 489.758 290.805 489.352 290.624C488.951 290.442 488.617 290.165 488.351 289.793C488.089 289.422 487.958 288.953 487.958 288.386V278.703ZM495.487 277.79V290.769H493.991V277.79H495.487ZM498.226 290.769V281.035H499.722V290.769H498.226ZM498.986 279.413C498.695 279.413 498.444 279.313 498.232 279.115C498.025 278.916 497.922 278.678 497.922 278.399C497.922 278.12 498.025 277.881 498.232 277.683C498.444 277.484 498.695 277.385 498.986 277.385C499.278 277.385 499.527 277.484 499.734 277.683C499.946 277.881 500.051 278.12 500.051 278.399C500.051 278.678 499.946 278.916 499.734 279.115C499.527 279.313 499.278 279.413 498.986 279.413ZM509.356 283.215L508.013 283.595C507.928 283.371 507.803 283.154 507.639 282.943C507.478 282.727 507.258 282.55 506.98 282.41C506.701 282.271 506.344 282.201 505.909 282.201C505.313 282.201 504.816 282.338 504.419 282.613C504.026 282.883 503.83 283.228 503.83 283.646C503.83 284.018 503.965 284.311 504.235 284.527C504.506 284.742 504.928 284.922 505.503 285.066L506.948 285.421C507.818 285.632 508.467 285.955 508.893 286.39C509.32 286.821 509.534 287.377 509.534 288.057C509.534 288.615 509.373 289.113 509.052 289.553C508.735 289.992 508.291 290.338 507.721 290.592C507.151 290.845 506.487 290.972 505.731 290.972C504.738 290.972 503.916 290.757 503.266 290.326C502.615 289.895 502.203 289.265 502.03 288.437L503.45 288.082C503.585 288.606 503.84 288.999 504.216 289.261C504.597 289.523 505.093 289.654 505.706 289.654C506.403 289.654 506.956 289.506 507.366 289.21C507.78 288.91 507.987 288.551 507.987 288.133C507.987 287.795 507.869 287.512 507.632 287.284C507.396 287.051 507.032 286.878 506.542 286.764L504.92 286.384C504.028 286.173 503.374 285.845 502.955 285.401C502.541 284.954 502.334 284.394 502.334 283.722C502.334 283.173 502.488 282.687 502.797 282.264C503.11 281.842 503.534 281.51 504.071 281.27C504.611 281.029 505.224 280.908 505.909 280.908C506.872 280.908 507.628 281.12 508.177 281.542C508.731 281.965 509.124 282.522 509.356 283.215ZM516.018 281.035V282.303H510.974V281.035H516.018ZM512.444 278.703H513.94V287.981C513.94 288.403 514.001 288.72 514.123 288.931C514.25 289.138 514.411 289.278 514.605 289.35C514.804 289.417 515.013 289.451 515.232 289.451C515.397 289.451 515.532 289.443 515.638 289.426C515.744 289.405 515.828 289.388 515.892 289.375L516.196 290.719C516.094 290.757 515.953 290.795 515.771 290.833C515.589 290.875 515.359 290.896 515.08 290.896C514.658 290.896 514.244 290.805 513.838 290.624C513.437 290.442 513.103 290.165 512.837 289.793C512.575 289.422 512.444 288.953 512.444 288.386V278.703Z" fill="white"/>
<path d="M183.57 416V409.091L225.07 342.909H230.161V354.5H226.388L193.07 407.773V408.364H247.479V416H183.57ZM227.024 436V413.818V410.636V342.909H235.115V436H227.024ZM272.76 423.273L271.942 428.136C271.426 431.409 270.699 435.015 269.76 438.955C268.82 442.894 267.851 446.636 266.851 450.182C265.851 453.727 264.987 456.576 264.26 458.727H258.033C258.426 456.667 258.926 454.045 259.533 450.864C260.169 447.682 260.82 444.152 261.487 440.273C262.154 436.424 262.76 432.455 263.305 428.364L263.942 423.273H272.76ZM316.336 437.273C309.791 437.273 304.2 435.394 299.563 431.636C294.957 427.848 291.412 422.379 288.927 415.227C286.473 408.076 285.245 399.485 285.245 389.455C285.245 379.455 286.473 370.894 288.927 363.773C291.412 356.621 294.973 351.152 299.609 347.364C304.276 343.545 309.851 341.636 316.336 341.636C322.821 341.636 328.382 343.545 333.018 347.364C337.685 351.152 341.245 356.621 343.7 363.773C346.185 370.894 347.427 379.455 347.427 389.455C347.427 399.485 346.185 408.076 343.7 415.227C341.245 422.379 337.7 427.848 333.063 431.636C328.457 435.394 322.882 437.273 316.336 437.273ZM316.336 429.636C323.518 429.636 329.124 426.136 333.154 419.136C337.185 412.106 339.2 402.212 339.2 389.455C339.2 380.97 338.276 373.727 336.427 367.727C334.609 361.697 331.988 357.091 328.563 353.909C325.169 350.727 321.094 349.136 316.336 349.136C309.215 349.136 303.624 352.682 299.563 359.773C295.503 366.833 293.473 376.727 293.473 389.455C293.473 397.939 294.382 405.182 296.2 411.182C298.048 417.182 300.669 421.758 304.063 424.909C307.488 428.061 311.579 429.636 316.336 429.636ZM392.276 437.273C385.731 437.273 380.14 435.394 375.503 431.636C370.897 427.848 367.352 422.379 364.867 415.227C362.413 408.076 361.185 399.485 361.185 389.455C361.185 379.455 362.413 370.894 364.867 363.773C367.352 356.621 370.913 351.152 375.549 347.364C380.216 343.545 385.791 341.636 392.276 341.636C398.761 341.636 404.322 343.545 408.958 347.364C413.625 351.152 417.185 356.621 419.64 363.773C422.125 370.894 423.367 379.455 423.367 389.455C423.367 399.485 422.125 408.076 419.64 415.227C417.185 422.379 413.64 427.848 409.003 431.636C404.397 435.394 398.822 437.273 392.276 437.273ZM392.276 429.636C399.458 429.636 405.064 426.136 409.094 419.136C413.125 412.106 415.14 402.212 415.14 389.455C415.14 380.97 414.216 373.727 412.367 367.727C410.549 361.697 407.928 357.091 404.503 353.909C401.109 350.727 397.034 349.136 392.276 349.136C385.155 349.136 379.564 352.682 375.503 359.773C371.443 366.833 369.413 376.727 369.413 389.455C369.413 397.939 370.322 405.182 372.14 411.182C373.988 417.182 376.609 421.758 380.003 424.909C383.428 428.061 387.519 429.636 392.276 429.636ZM468.216 437.273C461.671 437.273 456.08 435.394 451.443 431.636C446.837 427.848 443.292 422.379 440.807 415.227C438.353 408.076 437.125 399.485 437.125 389.455C437.125 379.455 438.353 370.894 440.807 363.773C443.292 356.621 446.853 351.152 451.489 347.364C456.156 343.545 461.731 341.636 468.216 341.636C474.701 341.636 480.262 343.545 484.898 347.364C489.565 351.152 493.125 356.621 495.58 363.773C498.065 370.894 499.307 379.455 499.307 389.455C499.307 399.485 498.065 408.076 495.58 415.227C493.125 422.379 489.58 427.848 484.943 431.636C480.337 435.394 474.762 437.273 468.216 437.273ZM468.216 429.636C475.398 429.636 481.004 426.136 485.034 419.136C489.065 412.106 491.08 402.212 491.08 389.455C491.08 380.97 490.156 373.727 488.307 367.727C486.489 361.697 483.868 357.091 480.443 353.909C477.049 350.727 472.974 349.136 468.216 349.136C461.095 349.136 455.504 352.682 451.443 359.773C447.383 366.833 445.353 376.727 445.353 389.455C445.353 397.939 446.262 405.182 448.08 411.182C449.928 417.182 452.549 421.758 455.943 424.909C459.368 428.061 463.459 429.636 468.216 429.636ZM542.702 418.364V360.773H550.474V418.364H542.702ZM517.793 393.455V385.682H575.383V393.455H517.793Z" fill="white"/>
<defs>
<filter id="filter0_dddddd_636_30307" x="0.502502" y="0.502502" width="762.995" height="762.995" filterUnits="userSpaceOnUse" color-interpolation-filters="sRGB">
<feFlood flood-opacity="0" result="BackgroundImageFix"/>
<feColorMatrix in="SourceAlpha" type="matrix" values="0 0 0 0 0 0 0 0 0 0 0 0 0 0 0 0 0 0 127 0" result="hardAlpha"/>
<feOffset/>
<feGaussianBlur stdDeviation="1.63688"/>
<feColorMatrix type="matrix" values="0 0 0 0 0.203922 0 0 0 0 0.945098 0 0 0 0 0.635294 0 0 0 1 0"/>
<feBlend mode="normal" in2="BackgroundImageFix" result="effect1_dropShadow_636_30307"/>
<feColorMatrix in="SourceAlpha" type="matrix" values="0 0 0 0 0 0 0 0 0 0 0 0 0 0 0 0 0 0 127 0" result="hardAlpha"/>
<feOffset/>
<feGaussianBlur stdDeviation="3.27375"/>
<feColorMatrix type="matrix" values="0 0 0 0 0.203922 0 0 0 0 0.945098 0 0 0 0 0.635294 0 0 0 1 0"/>
<feBlend mode="normal" in2="effect1_dropShadow_636_30307" result="effect2_dropShadow_636_30307"/>
<feColorMatrix in="SourceAlpha" type="matrix" values="0 0 0 0 0 0 0 0 0 0 0 0 0 0 0 0 0 0 127 0" result="hardAlpha"/>
<feOffset/>
<feGaussianBlur stdDeviation="11.4581"/>
<feColorMatrix type="matrix" values="0 0 0 0 0.203922 0 0 0 0 0.945098 0 0 0 0 0.635294 0 0 0 1 0"/>
<feBlend mode="normal" in2="effect2_dropShadow_636_30307" result="effect3_dropShadow_636_30307"/>
<feColorMatrix in="SourceAlpha" type="matrix" values="0 0 0 0 0 0 0 0 0 0 0 0 0 0 0 0 0 0 127 0" result="hardAlpha"/>
<feOffset/>
<feGaussianBlur stdDeviation="22.9163"/>
<feColorMatrix type="matrix" values="0 0 0 0 0.203922 0 0 0 0 0.945098 0 0 0 0 0.635294 0 0 0 1 0"/>
<feBlend mode="normal" in2="effect3_dropShadow_636_30307" result="effect4_dropShadow_636_30307"/>
<feColorMatrix in="SourceAlpha" type="matrix" values="0 0 0 0 0 0 0 0 0 0 0 0 0 0 0 0 0 0 127 0" result="hardAlpha"/>
<feOffset/>
<feGaussianBlur stdDeviation="39.285"/>
<feColorMatrix type="matrix" values="0 0 0 0 0.203922 0 0 0 0 0.945098 0 0 0 0 0.635294 0 0 0 1 0"/>
<feBlend mode="normal" in2="effect4_dropShadow_636_30307" result="effect5_dropShadow_636_30307"/>
<feColorMatrix in="SourceAlpha" type="matrix" values="0 0 0 0 0 0 0 0 0 0 0 0 0 0 0 0 0 0 127 0" result="hardAlpha"/>
<feOffset/>
<feGaussianBlur stdDeviation="68.7487"/>
<feColorMatrix type="matrix" values="0 0 0 0 0.203922 0 0 0 0 0.945098 0 0 0 0 0.635294 0 0 0 1 0"/>
<feBlend mode="normal" in2="effect5_dropShadow_636_30307" result="effect6_dropShadow_636_30307"/>
<feBlend mode="normal" in="SourceGraphic" in2="effect6_dropShadow_636_30307" result="shape"/>
</filter>
</defs>
</svg>
