<svg width="91" height="61" viewBox="0 0 91 61" fill="none" xmlns="http://www.w3.org/2000/svg">
<path d="M21.5027 21.0704C21.0241 20.5783 20.3696 20.2965 19.6832 20.287C18.9968 20.2775 18.3348 20.541 17.8427 21.0196C17.3506 21.4982 17.0688 22.1527 17.0593 22.8391C17.0497 23.5254 17.3133 24.1875 17.7919 24.6796L23.7394 30.5L17.7919 36.3204C17.5536 36.5567 17.3645 36.8378 17.2355 37.1475C17.1065 37.4573 17.04 37.7895 17.04 38.125C17.04 38.4605 17.1065 38.7927 17.2355 39.1025C17.3645 39.4122 17.5536 39.6933 17.7919 39.9296C18.0281 40.1678 18.3093 40.3569 18.619 40.4859C18.9287 40.615 19.2609 40.6814 19.5964 40.6814C19.932 40.6814 20.2642 40.615 20.5739 40.4859C20.8836 40.3569 21.1647 40.1678 21.401 39.9296L29.026 32.3046C29.2643 32.0683 29.4533 31.7872 29.5824 31.4775C29.7114 31.1677 29.7778 30.8355 29.7778 30.5C29.7778 30.1645 29.7114 29.8323 29.5824 29.5225C29.4533 29.2128 29.2643 28.9317 29.026 28.6954L21.5027 21.0704ZM43.1069 28.6954L35.4819 21.0704C35.0033 20.5918 34.3541 20.3229 33.6773 20.3229C33.0004 20.3229 32.3513 20.5918 31.8727 21.0704C31.3941 21.549 31.1252 22.1982 31.1252 22.875C31.1252 23.5519 31.3941 24.201 31.8727 24.6796L37.7185 30.5L31.8727 36.3204C31.6345 36.5567 31.4454 36.8378 31.3163 37.1475C31.1873 37.4573 31.1209 37.7895 31.1209 38.125C31.1209 38.4605 31.1873 38.7927 31.3163 39.1025C31.4454 39.4122 31.6345 39.6933 31.8727 39.9296C32.109 40.1678 32.3901 40.3569 32.6998 40.4859C33.0095 40.615 33.3417 40.6814 33.6773 40.6814C34.0128 40.6814 34.345 40.615 34.6547 40.4859C34.9645 40.3569 35.2456 40.1678 35.4819 39.9296L43.1069 32.3046C43.3519 32.0751 43.549 31.7993 43.6868 31.4932C43.8246 31.1871 43.9005 30.8568 43.9099 30.5212C43.9194 30.1856 43.8623 29.8515 43.7419 29.5381C43.6215 29.2248 43.4402 28.9383 43.2085 28.6954H43.1069Z" fill="#34F1A2"/>
<path d="M51.5027 21.0704C51.0241 20.5783 50.3696 20.2965 49.6832 20.287C48.9968 20.2775 48.3348 20.541 47.8427 21.0196C47.3506 21.4982 47.0688 22.1527 47.0593 22.8391C47.0497 23.5254 47.3133 24.1875 47.7919 24.6796L53.7394 30.5L47.7919 36.3204C47.5536 36.5567 47.3645 36.8378 47.2355 37.1475C47.1065 37.4573 47.04 37.7895 47.04 38.125C47.04 38.4605 47.1065 38.7927 47.2355 39.1025C47.3645 39.4122 47.5536 39.6933 47.7919 39.9296C48.0281 40.1678 48.3093 40.3569 48.619 40.4859C48.9287 40.615 49.2609 40.6814 49.5964 40.6814C49.932 40.6814 50.2642 40.615 50.5739 40.4859C50.8836 40.3569 51.1647 40.1678 51.401 39.9296L59.026 32.3046C59.2643 32.0683 59.4533 31.7872 59.5824 31.4775C59.7114 31.1677 59.7778 30.8355 59.7778 30.5C59.7778 30.1645 59.7114 29.8323 59.5824 29.5225C59.4533 29.2128 59.2643 28.9317 59.026 28.6954L51.5027 21.0704ZM73.1069 28.6954L65.4819 21.0704C65.0033 20.5918 64.3541 20.3229 63.6773 20.3229C63.0004 20.3229 62.3513 20.5918 61.8727 21.0704C61.3941 21.549 61.1252 22.1982 61.1252 22.875C61.1252 23.5519 61.3941 24.201 61.8727 24.6796L67.7185 30.5L61.8727 36.3204C61.6345 36.5567 61.4454 36.8378 61.3163 37.1475C61.1873 37.4573 61.1209 37.7895 61.1209 38.125C61.1209 38.4605 61.1873 38.7927 61.3163 39.1025C61.4454 39.4122 61.6345 39.6933 61.8727 39.9296C62.109 40.1678 62.3901 40.3569 62.6998 40.4859C63.0095 40.615 63.3417 40.6814 63.6773 40.6814C64.0128 40.6814 64.345 40.615 64.6547 40.4859C64.9645 40.3569 65.2456 40.1678 65.4819 39.9296L73.1069 32.3046C73.3519 32.0751 73.549 31.7993 73.6868 31.4932C73.8246 31.1871 73.9005 30.8568 73.9099 30.5212C73.9194 30.1856 73.8623 29.8515 73.7419 29.5381C73.6215 29.2248 73.4402 28.9383 73.2085 28.6954H73.1069Z" fill="#34F1A2"/>
</svg>
