<svg width="41" height="40" viewBox="0 0 41 40" fill="none" xmlns="http://www.w3.org/2000/svg">
<path d="M23.8333 18.3333H22.1667V11.6666H25.5C25.942 11.6666 26.3659 11.8422 26.6785 12.1547C26.9911 12.4673 27.1667 12.8912 27.1667 13.3333C27.1667 13.7753 27.3423 14.1992 27.6548 14.5118C27.9674 14.8243 28.3913 14.9999 28.8333 14.9999C29.2754 14.9999 29.6993 14.8243 30.0118 14.5118C30.3244 14.1992 30.5 13.7753 30.5 13.3333C30.5 12.0072 29.9732 10.7354 29.0355 9.79772C28.0979 8.86004 26.8261 8.33325 25.5 8.33325H22.1667V4.99992C22.1667 4.55789 21.9911 4.13397 21.6785 3.82141C21.366 3.50885 20.942 3.33325 20.5 3.33325C20.058 3.33325 19.634 3.50885 19.3215 3.82141C19.0089 4.13397 18.8333 4.55789 18.8333 4.99992V8.33325H17.1667C15.3986 8.33325 13.7029 9.03563 12.4526 10.2859C11.2024 11.5361 10.5 13.2318 10.5 14.9999C10.5 16.768 11.2024 18.4637 12.4526 19.714C13.7029 20.9642 15.3986 21.6666 17.1667 21.6666H18.8333V28.3333H15.5C15.058 28.3333 14.634 28.1577 14.3215 27.8451C14.0089 27.5325 13.8333 27.1086 13.8333 26.6666C13.8333 26.2246 13.6577 25.8006 13.3452 25.4881C13.0326 25.1755 12.6087 24.9999 12.1667 24.9999C11.7246 24.9999 11.3007 25.1755 10.9882 25.4881C10.6756 25.8006 10.5 26.2246 10.5 26.6666C10.5 27.9927 11.0268 29.2644 11.9645 30.2021C12.9021 31.1398 14.1739 31.6666 15.5 31.6666H18.8333V34.9999C18.8333 35.4419 19.0089 35.8659 19.3215 36.1784C19.634 36.491 20.058 36.6666 20.5 36.6666C20.942 36.6666 21.366 36.491 21.6785 36.1784C21.9911 35.8659 22.1667 35.4419 22.1667 34.9999V31.6666H23.8333C25.6014 31.6666 27.2971 30.9642 28.5474 29.714C29.7976 28.4637 30.5 26.768 30.5 24.9999C30.5 23.2318 29.7976 21.5361 28.5474 20.2859C27.2971 19.0356 25.6014 18.3333 23.8333 18.3333V18.3333ZM18.8333 18.3333H17.1667C16.2826 18.3333 15.4348 17.9821 14.8096 17.3569C14.1845 16.7318 13.8333 15.884 13.8333 14.9999C13.8333 14.1159 14.1845 13.268 14.8096 12.6429C15.4348 12.0178 16.2826 11.6666 17.1667 11.6666H18.8333V18.3333ZM23.8333 28.3333H22.1667V21.6666H23.8333C24.7174 21.6666 25.5652 22.0178 26.1904 22.6429C26.8155 23.268 27.1667 24.1159 27.1667 24.9999C27.1667 25.884 26.8155 26.7318 26.1904 27.3569C25.5652 27.9821 24.7174 28.3333 23.8333 28.3333Z" fill="#34F1A2"/>
</svg>
