<svg width="20" height="20" viewBox="0 0 20 20" fill="none" xmlns="http://www.w3.org/2000/svg">
<path d="M17.6837 10C18.0985 9.54364 18.33 8.95005 18.3337 8.33333C18.3337 7.67029 18.0703 7.03441 17.6014 6.56557C17.1326 6.09673 16.4967 5.83333 15.8337 5.83333H11.517C11.6501 5.45681 11.6911 5.05388 11.6365 4.65827C11.5819 4.26266 11.4334 3.88588 11.2032 3.55949C10.9731 3.23309 10.6682 2.96656 10.3139 2.78223C9.95963 2.5979 9.56635 2.50112 9.16699 2.5H4.16699C3.50395 2.5 2.86807 2.76339 2.39923 3.23223C1.93038 3.70107 1.66699 4.33696 1.66699 5C1.67067 5.61671 1.90217 6.2103 2.31699 6.66667C1.90703 7.12502 1.68038 7.71839 1.68038 8.33333C1.68038 8.94828 1.90703 9.54165 2.31699 10C1.90703 10.4584 1.68038 11.0517 1.68038 11.6667C1.68038 12.2816 1.90703 12.875 2.31699 13.3333C1.90217 13.7897 1.67067 14.3833 1.66699 15C1.66699 15.663 1.93038 16.2989 2.39923 16.7678C2.86807 17.2366 3.50395 17.5 4.16699 17.5H15.8337C16.3151 17.4974 16.7856 17.3559 17.1886 17.0924C17.5915 16.8289 17.9098 16.4546 18.1052 16.0145C18.3006 15.5745 18.3647 15.0874 18.29 14.6117C18.2152 14.1361 18.0046 13.6922 17.6837 13.3333C18.0936 12.875 18.3203 12.2816 18.3203 11.6667C18.3203 11.0517 18.0936 10.4584 17.6837 10ZM9.16699 15.8333H4.16699C3.94598 15.8333 3.73402 15.7455 3.57774 15.5893C3.42146 15.433 3.33366 15.221 3.33366 15C3.33366 14.779 3.42146 14.567 3.57774 14.4107C3.73402 14.2545 3.94598 14.1667 4.16699 14.1667H9.16699C9.38801 14.1667 9.59997 14.2545 9.75625 14.4107C9.91253 14.567 10.0003 14.779 10.0003 15C10.0003 15.221 9.91253 15.433 9.75625 15.5893C9.59997 15.7455 9.38801 15.8333 9.16699 15.8333ZM9.16699 12.5H4.16699C3.94598 12.5 3.73402 12.4122 3.57774 12.2559C3.42146 12.0996 3.33366 11.8877 3.33366 11.6667C3.33366 11.4457 3.42146 11.2337 3.57774 11.0774C3.73402 10.9211 3.94598 10.8333 4.16699 10.8333H9.16699C9.38801 10.8333 9.59997 10.9211 9.75625 11.0774C9.91253 11.2337 10.0003 11.4457 10.0003 11.6667C10.0003 11.8877 9.91253 12.0996 9.75625 12.2559C9.59997 12.4122 9.38801 12.5 9.16699 12.5ZM9.16699 9.16667H4.16699C3.94598 9.16667 3.73402 9.07887 3.57774 8.92259C3.42146 8.76631 3.33366 8.55435 3.33366 8.33333C3.33366 8.11232 3.42146 7.90036 3.57774 7.74408C3.73402 7.5878 3.94598 7.5 4.16699 7.5H9.16699C9.38801 7.5 9.59997 7.5878 9.75625 7.74408C9.91253 7.90036 10.0003 8.11232 10.0003 8.33333C10.0003 8.55435 9.91253 8.76631 9.75625 8.92259C9.59997 9.07887 9.38801 9.16667 9.16699 9.16667ZM9.16699 5.83333H4.16699C3.94598 5.83333 3.73402 5.74554 3.57774 5.58926C3.42146 5.43298 3.33366 5.22101 3.33366 5C3.33366 4.77899 3.42146 4.56702 3.57774 4.41074C3.73402 4.25446 3.94598 4.16667 4.16699 4.16667H9.16699C9.38801 4.16667 9.59997 4.25446 9.75625 4.41074C9.91253 4.56702 10.0003 4.77899 10.0003 5C10.0003 5.22101 9.91253 5.43298 9.75625 5.58926C9.59997 5.74554 9.38801 5.83333 9.16699 5.83333ZM16.4087 15.5917C16.3348 15.6696 16.2455 15.7313 16.1465 15.7729C16.0476 15.8145 15.941 15.8351 15.8337 15.8333H11.517C11.7168 15.2957 11.7168 14.7043 11.517 14.1667H15.8337C16.0547 14.1667 16.2666 14.2545 16.4229 14.4107C16.5792 14.567 16.667 14.779 16.667 15C16.6655 15.1108 16.6418 15.2203 16.5975 15.3219C16.5531 15.4235 16.4889 15.5152 16.4087 15.5917V15.5917ZM16.4087 12.2583C16.3348 12.3362 16.2455 12.398 16.1465 12.4396C16.0476 12.4812 15.941 12.5017 15.8337 12.5H11.517C11.7168 11.9624 11.7168 11.3709 11.517 10.8333H15.8337C16.0547 10.8333 16.2666 10.9211 16.4229 11.0774C16.5792 11.2337 16.667 11.4457 16.667 11.6667C16.6655 11.7775 16.6418 11.8869 16.5975 11.9885C16.5531 12.0901 16.4889 12.1819 16.4087 12.2583V12.2583ZM16.4087 8.925C16.3348 9.00292 16.2455 9.06463 16.1465 9.10623C16.0476 9.14783 15.941 9.16841 15.8337 9.16667H11.517C11.7168 8.62908 11.7168 8.03759 11.517 7.5H15.8337C16.0547 7.5 16.2666 7.5878 16.4229 7.74408C16.5792 7.90036 16.667 8.11232 16.667 8.33333C16.6655 8.44418 16.6418 8.5536 16.5975 8.6552C16.5531 8.7568 16.4889 8.84852 16.4087 8.925V8.925Z" fill="#34F1A2"/>
</svg>
