<svg width="41" height="40" viewBox="0 0 41 40" fill="none" xmlns="http://www.w3.org/2000/svg">
<path d="M22.6663 20.3666C23.5556 19.5968 24.2689 18.6447 24.7578 17.575C25.2467 16.5052 25.4997 15.3428 25.4997 14.1666C25.4997 11.9564 24.6217 9.83683 23.0589 8.27403C21.4961 6.71123 19.3765 5.83325 17.1663 5.83325C14.9562 5.83325 12.8366 6.71123 11.2738 8.27403C9.71098 9.83683 8.83301 11.9564 8.83301 14.1666C8.833 15.3428 9.08601 16.5052 9.57488 17.575C10.0638 18.6447 10.777 19.5968 11.6663 20.3666C9.33324 21.4231 7.35378 23.1291 5.96464 25.2808C4.5755 27.4325 3.83546 29.9388 3.83301 32.4999C3.83301 32.9419 4.0086 33.3659 4.32116 33.6784C4.63372 33.991 5.05765 34.1666 5.49967 34.1666C5.9417 34.1666 6.36563 33.991 6.67819 33.6784C6.99075 33.3659 7.16634 32.9419 7.16634 32.4999C7.16634 29.8478 8.21991 27.3042 10.0953 25.4289C11.9706 23.5535 14.5142 22.4999 17.1663 22.4999C19.8185 22.4999 22.362 23.5535 24.2374 25.4289C26.1128 27.3042 27.1663 29.8478 27.1663 32.4999C27.1663 32.9419 27.3419 33.3659 27.6545 33.6784C27.9671 33.991 28.391 34.1666 28.833 34.1666C29.275 34.1666 29.699 33.991 30.0115 33.6784C30.3241 33.3659 30.4997 32.9419 30.4997 32.4999C30.4972 29.9388 29.7572 27.4325 28.368 25.2808C26.9789 23.1291 24.9994 21.4231 22.6663 20.3666V20.3666ZM17.1663 19.1666C16.1774 19.1666 15.2107 18.8733 14.3885 18.3239C13.5662 17.7745 12.9254 16.9936 12.5469 16.08C12.1685 15.1664 12.0695 14.161 12.2624 13.1911C12.4553 12.2212 12.9315 11.3303 13.6308 10.6311C14.3301 9.93179 15.221 9.45559 16.1909 9.26266C17.1608 9.06973 18.1661 9.16875 19.0798 9.54719C19.9934 9.92563 20.7743 10.5665 21.3237 11.3887C21.8731 12.211 22.1663 13.1777 22.1663 14.1666C22.1663 15.4927 21.6396 16.7644 20.7019 17.7021C19.7642 18.6398 18.4924 19.1666 17.1663 19.1666ZM36.683 15.2166C36.5281 15.0604 36.3437 14.9364 36.1406 14.8518C35.9375 14.7672 35.7197 14.7236 35.4997 14.7236C35.2797 14.7236 35.0618 14.7672 34.8587 14.8518C34.6556 14.9364 34.4713 15.0604 34.3163 15.2166L30.983 18.5499L29.9497 17.4999C29.7947 17.3437 29.6104 17.2197 29.4073 17.1351C29.2042 17.0505 28.9864 17.0069 28.7663 17.0069C28.5463 17.0069 28.3285 17.0505 28.1254 17.1351C27.9223 17.2197 27.7379 17.3437 27.583 17.4999C27.2726 17.8122 27.0984 18.2346 27.0984 18.6749C27.0984 19.1152 27.2726 19.5376 27.583 19.8499L29.8163 22.0833C30.1286 22.3937 30.551 22.5679 30.9913 22.5679C31.4317 22.5679 31.8541 22.3937 32.1663 22.0833L36.6163 17.6333C36.7846 17.4821 36.9204 17.2983 37.0153 17.0931C37.1103 16.8878 37.1625 16.6653 37.1687 16.4392C37.175 16.2131 37.1351 15.9882 37.0516 15.778C36.9681 15.5678 36.8427 15.3768 36.683 15.2166V15.2166Z" fill="#34F1A2"/>
</svg>
