<svg width="89" height="30" viewBox="0 0 89 30" fill="none" xmlns="http://www.w3.org/2000/svg">
<mask id="mask0_636_25461" style="mask-type:luminance" maskUnits="userSpaceOnUse" x="1" y="0" width="88" height="15">
<path d="M88.2347 0H1.24219V14.2857H88.2347V0Z" fill="white"/>
</mask>
<g mask="url(#mask0_636_25461)">
<path d="M1.24707 3.21729H3.58239V14.0055H1.24707V3.21729Z" fill="white"/>
<path d="M13.7251 10.9633C13.7251 13.1211 11.8433 14.2853 9.51245 14.2853C7.34965 14.2853 5.79247 13.3146 5.10059 11.761L7.11131 10.5968C7.45725 11.5675 8.32256 12.1505 9.51245 12.1505C10.5502 12.1505 11.3506 11.8053 11.3506 10.942C11.3506 9.02201 5.5328 10.1 5.5328 6.23954C5.5328 4.21125 7.28474 2.93896 9.49022 2.93896C11.2635 2.93896 12.7345 3.75877 13.4921 5.18287L11.524 6.28306C11.1346 5.44192 10.3778 5.05335 9.4911 5.05335C8.6427 5.05154 7.9117 5.41792 7.9117 6.19516C7.9117 8.16316 13.7251 6.97154 13.7251 10.9633Z" fill="white"/>
<path d="M23.2403 10.9633C23.2403 13.1211 21.3584 14.2862 19.0232 14.2862C16.8602 14.2862 15.3033 13.3155 14.6113 11.7619L16.6264 10.5968C16.9724 11.5675 17.8377 12.1505 19.0275 12.1505C20.0654 12.1505 20.8658 11.8053 20.8658 10.942C20.8658 9.02201 15.0479 10.1 15.0479 6.23954C15.0479 4.21125 16.7998 2.93896 19.0053 2.93896C20.7786 2.93896 22.2495 3.75877 23.0072 5.18287L21.0392 6.28306C20.6497 5.44192 19.8928 5.05335 19.0062 5.05335C18.1631 5.05335 17.4276 5.41973 17.4276 6.19696C17.4268 8.16316 23.2403 6.97154 23.2403 10.9633Z" fill="white"/>
<path d="M34.2274 3.21729V14.0054H31.8911V12.6248C31.1779 13.7463 30.0102 14.2849 28.5438 14.2849C26.1214 14.2849 24.3916 12.6453 24.3916 9.8407V3.21729H26.7269V9.60546C26.7269 11.2453 27.6785 12.1084 29.1494 12.1084C30.6844 12.1084 31.8956 11.2025 31.8956 9.0031V3.21729H34.2274Z" fill="white"/>
<path d="M47.4404 3.21699V14.0053H45.1043V12.4515C44.2835 13.5953 43.0064 14.2847 41.3194 14.2847C38.3784 14.2847 35.9346 11.8004 35.9346 8.60622C35.9346 5.39165 38.3784 2.93213 41.3194 2.93213C43.009 2.93213 44.2825 3.62241 45.1043 4.74394V3.21699H47.4404ZM45.1043 8.61061C45.1043 6.60451 43.6342 5.15832 41.6875 5.15832C39.7408 5.15832 38.2707 6.60451 38.2707 8.61061C38.2707 10.6167 39.7408 12.0665 41.6875 12.0665C43.6342 12.0665 45.1043 10.6175 45.1043 8.61061Z" fill="white"/>
<path d="M59.5952 7.3813V14.0056H57.2599V7.61739C57.2599 5.97768 56.3083 5.11434 54.8374 5.11434C53.3025 5.11434 52.0912 6.02025 52.0912 8.21977V14.0021H49.7559V3.21739H52.0912V4.59796C52.8026 3.47654 53.973 2.93701 55.4431 2.93701C57.8655 2.93701 59.5952 4.57673 59.5952 7.3813Z" fill="white"/>
<path d="M61.0938 8.61111C61.0938 5.39654 63.5376 2.93701 66.803 2.93701C68.9223 2.93701 70.7605 4.0372 71.6258 5.72035L69.6097 6.88539C69.134 5.8712 68.0748 5.22349 66.7764 5.22349C64.8732 5.22349 63.4246 6.66977 63.4246 8.61111C63.4246 10.5524 64.8732 11.9985 66.7764 11.9985C68.0748 11.9985 69.134 11.3305 69.6533 10.3378L71.664 11.4813C70.756 13.1857 68.9196 14.2851 66.7986 14.2851C63.5331 14.2851 61.0938 11.8053 61.0938 8.61111Z" fill="white"/>
<path d="M78.0653 12.1499C79.3628 12.1499 80.3357 11.567 80.8549 10.8119L82.7795 11.9342C81.7852 13.3975 80.1632 14.2847 78.0439 14.2847C74.4752 14.2847 72.1611 11.8464 72.1611 8.60622C72.1611 5.41203 74.4734 2.93213 77.8704 2.93213C81.0934 2.93213 83.2953 5.52118 83.2953 8.62841C83.2879 8.95356 83.2582 9.27784 83.2063 9.59898H74.6049C74.9722 11.2867 76.3356 12.1499 78.0653 12.1499ZM80.9413 7.7047C80.6167 5.84946 79.2516 5.05099 77.8491 5.05099C76.0972 5.05099 74.9083 6.08641 74.5836 7.7047H80.9413Z" fill="white"/>
<path d="M2.93721 2.3379H1.89049C1.71855 2.3379 1.55365 2.26981 1.43207 2.14848C1.31049 2.02714 1.24219 1.86267 1.24219 1.69111V0.64681C1.24219 0.475267 1.31049 0.310743 1.43207 0.189448C1.55365 0.0681431 1.71855 0 1.89049 0H3.58552V1.69111C3.58529 1.86258 3.51691 2.02695 3.39538 2.14819C3.27385 2.26943 3.10909 2.33771 2.93721 2.3379Z" fill="white"/>
<path d="M85.2406 0C84.0133 0 83.0186 0.980248 83.0186 2.18952C83.0186 3.39876 84.0133 4.37905 85.2406 4.37905C86.4679 4.37905 87.4628 3.39876 87.4628 2.18952C87.4628 0.980248 86.4679 0 85.2406 0ZM85.2406 3.94114C84.2606 3.94114 83.4629 3.15514 83.4629 2.18952C83.4629 1.22394 84.2606 0.437905 85.2406 0.437905C86.2206 0.437905 87.0184 1.22394 87.0184 2.18952C87.0184 3.15514 86.2206 3.94114 85.2406 3.94114ZM85.2953 2.46781H84.9756V3.17067H84.574V1.25043H85.298C85.5281 1.25043 85.7057 1.30101 85.8306 1.40216C85.9556 1.50331 86.018 1.64608 86.018 1.83088C86.018 1.96181 85.9892 2.07105 85.9318 2.15867C85.8741 2.24619 85.787 2.31581 85.6701 2.36771L86.0917 3.15248V3.17086H85.6608L85.2953 2.46781ZM84.9756 2.14724H85.2997C85.4003 2.14724 85.4784 2.1221 85.5339 2.07152C85.589 2.02095 85.6166 1.95133 85.6166 1.86241C85.6166 1.77176 85.5906 1.70059 85.5384 1.6487C85.4862 1.59681 85.4062 1.57098 85.2981 1.57098H84.9756V2.14724Z" fill="white"/>
</g>
<path d="M1.98912 23.5324V24.0781C1.98912 24.7809 2.1292 25.2743 2.40936 25.5584C2.69453 25.8376 3.19481 25.9771 3.91022 25.9771H5.14093C5.77129 25.9771 6.22905 25.8974 6.51422 25.7378C6.80438 25.5734 6.97698 25.2918 7.03201 24.8931C7.05202 24.7685 7.09205 24.6737 7.15208 24.609C7.21712 24.5442 7.31467 24.5117 7.44475 24.5117C7.57483 24.5117 7.67239 24.5492 7.73742 24.6239C7.80746 24.6937 7.83497 24.7934 7.81997 24.923C7.75493 25.551 7.50228 26.0145 7.06203 26.3136C6.62178 26.6126 5.98141 26.7621 5.14093 26.7621H3.91022C2.97469 26.7621 2.2893 26.5478 1.85405 26.1192C1.4188 25.6856 1.20117 25.0052 1.20117 24.0781V22.3885C1.20117 21.4465 1.4188 20.7613 1.85405 20.3326C2.2893 19.899 2.97469 19.6872 3.91022 19.6971H5.14093C6.07646 19.6971 6.75936 19.9139 7.1896 20.3476C7.62485 20.7762 7.84248 21.4565 7.84248 22.3885V23.1361C7.84248 23.4003 7.7124 23.5324 7.45226 23.5324H1.98912ZM3.91022 20.4821C3.19481 20.4721 2.69453 20.6092 2.40936 20.8933C2.1292 21.1724 1.98912 21.6708 1.98912 22.3885V22.7474H7.05453V22.3885C7.05453 21.6758 6.91445 21.1799 6.63429 20.9008C6.35412 20.6217 5.85634 20.4821 5.14093 20.4821H3.91022ZM9.50492 26.6575C9.2948 26.493 9.27228 26.306 9.43738 26.0967L11.7937 23.1212L9.63247 20.3476C9.46739 20.1482 9.4874 19.9637 9.6925 19.7943C9.90263 19.6398 10.0878 19.6622 10.2478 19.8616L12.3566 22.5605L14.5478 19.8616C14.7129 19.6473 14.898 19.6274 15.1032 19.8017C15.3133 19.9662 15.3357 20.1482 15.1706 20.3476L12.8443 23.1959L15.1256 26.1042C15.2907 26.3185 15.2707 26.5004 15.0656 26.6499C14.8555 26.8195 14.6679 26.7996 14.5028 26.5901L12.2965 23.7641L10.0527 26.5827C9.88762 26.797 9.70503 26.8219 9.50492 26.6575ZM17.8815 29.7526C17.6163 29.7526 17.4838 29.6205 17.4838 29.3564V20.0858C17.4838 19.8267 17.6163 19.6971 17.8815 19.6971C18.1416 19.6971 18.2717 19.8267 18.2717 20.0858V20.7513C18.4968 20.4024 18.8196 20.1407 19.2398 19.9662C19.66 19.7868 20.1978 19.6971 20.8532 19.6971H21.4235C22.359 19.6971 23.0419 19.9139 23.4722 20.3476C23.9075 20.7762 24.125 21.4565 24.125 22.3885V24.0632C24.125 24.9953 23.9075 25.678 23.4722 26.1117C23.0419 26.5453 22.359 26.7621 21.4235 26.7621H18.2717V29.3564C18.2717 29.6205 18.1416 29.7526 17.8815 29.7526ZM18.2717 25.9771H21.4235C22.1389 25.9771 22.6367 25.8376 22.9169 25.5584C23.197 25.2743 23.3371 24.7759 23.3371 24.0632V22.3885C23.3371 21.6758 23.197 21.1799 22.9169 20.9008C22.6367 20.6217 22.1389 20.4821 21.4235 20.4821H20.8532C20.0527 20.4821 19.4374 20.6067 19.0071 20.8559C18.5819 21.1052 18.3367 21.4889 18.2717 22.0073V25.9771ZM27.1599 26.7621C26.8948 26.7621 26.7623 26.63 26.7623 26.3658V20.0858C26.7623 19.8267 26.8948 19.6971 27.1599 19.6971C27.4202 19.6971 27.5502 19.8267 27.5502 20.0858V21.2372C27.8104 20.7388 28.1856 20.3576 28.6758 20.0934C29.1711 19.8292 29.7564 19.6971 30.4318 19.6971C30.697 19.6971 30.8296 19.8267 30.8296 20.0858C30.8296 20.35 30.697 20.4821 30.4318 20.4821C29.5413 20.4821 28.8509 20.6839 28.3606 21.0877C27.8704 21.4864 27.6003 22.0571 27.5502 22.7997V26.3658C27.5502 26.63 27.4202 26.7621 27.1599 26.7621ZM32.742 23.5324V24.0781C32.742 24.7809 32.882 25.2743 33.1622 25.5584C33.4474 25.8376 33.9477 25.9771 34.6631 25.9771H35.8938C36.5242 25.9771 36.9819 25.8974 37.267 25.7378C37.5573 25.5734 37.7298 25.2918 37.7849 24.8931C37.8049 24.7685 37.8449 24.6737 37.905 24.609C37.97 24.5442 38.0676 24.5117 38.1976 24.5117C38.3277 24.5117 38.4253 24.5492 38.4903 24.6239C38.5604 24.6937 38.5878 24.7934 38.5728 24.923C38.5078 25.551 38.2551 26.0145 37.8149 26.3136C37.3747 26.6126 36.7343 26.7621 35.8938 26.7621H34.6631C33.7276 26.7621 33.0422 26.5478 32.6069 26.1192C32.1717 25.6856 31.954 25.0052 31.954 24.0781V22.3885C31.954 21.4465 32.1717 20.7613 32.6069 20.3326C33.0422 19.899 33.7276 19.6872 34.6631 19.6971H35.8938C36.8293 19.6971 37.5122 19.9139 37.9424 20.3476C38.3777 20.7762 38.5953 21.4565 38.5953 22.3885V23.1361C38.5953 23.4003 38.4652 23.5324 38.2051 23.5324H32.742ZM34.6631 20.4821C33.9477 20.4721 33.4474 20.6092 33.1622 20.8933C32.882 21.1724 32.742 21.6708 32.742 22.3885V22.7474H37.8073V22.3885C37.8073 21.6758 37.6673 21.1799 37.3871 20.9008C37.107 20.6217 36.6092 20.4821 35.8938 20.4821H34.6631ZM42.7833 26.7472C42.168 26.7472 41.6977 26.6176 41.3725 26.3584C41.0473 26.0942 40.8522 25.693 40.7872 25.1547C40.7722 25.0252 40.7997 24.9255 40.8698 24.8557C40.9397 24.7809 41.0423 24.7436 41.1774 24.7436C41.3024 24.7436 41.3951 24.7759 41.4551 24.8408C41.5201 24.9056 41.5627 25.0027 41.5826 25.1323C41.6277 25.4414 41.7403 25.6581 41.9204 25.7827C42.1054 25.9023 42.3931 25.9621 42.7833 25.9621H45.2447C45.71 25.9621 46.0302 25.875 46.2053 25.7005C46.3804 25.526 46.468 25.2071 46.468 24.7436C46.468 24.2751 46.3804 23.9536 46.2053 23.7791C46.0302 23.6047 45.71 23.5175 45.2447 23.5175H42.8133C42.163 23.5175 41.6777 23.363 41.3575 23.0539C41.0423 22.7399 40.8848 22.259 40.8848 21.611C40.8848 20.9481 41.0423 20.4622 41.3575 20.1532C41.6727 19.8392 42.1579 19.6821 42.8133 19.6821H45.1697C46.3003 19.6821 46.9282 20.1806 47.0533 21.1774C47.0733 21.307 47.0458 21.4092 46.9707 21.4839C46.9007 21.5537 46.8007 21.5886 46.6706 21.5886C46.5455 21.5886 46.4504 21.5562 46.3854 21.4914C46.3254 21.4266 46.2828 21.3319 46.2579 21.2073C46.2228 20.9282 46.1202 20.7363 45.9501 20.6317C45.785 20.522 45.5249 20.4672 45.1697 20.4672H42.8133C42.3781 20.4672 42.0779 20.5469 41.9128 20.7064C41.7527 20.8659 41.6727 21.1675 41.6727 21.611C41.6727 22.0347 41.7553 22.3287 41.9204 22.4932C42.0855 22.6527 42.3831 22.7324 42.8133 22.7324H45.2447C45.9351 22.7324 46.4429 22.8969 46.7682 23.2258C47.0933 23.5498 47.2559 24.0557 47.2559 24.7436C47.2559 25.4264 47.0933 25.9322 46.7682 26.2612C46.4429 26.5852 45.9351 26.7472 45.2447 26.7472H42.7833ZM51.197 26.7472C50.5817 26.7472 50.1114 26.6176 49.7862 26.3584C49.4611 26.0942 49.266 25.693 49.2009 25.1547C49.1859 25.0252 49.2134 24.9255 49.2835 24.8557C49.3535 24.7809 49.456 24.7436 49.5911 24.7436C49.7162 24.7436 49.8088 24.7759 49.8688 24.8408C49.9338 24.9056 49.9764 25.0027 49.9963 25.1323C50.0414 25.4414 50.154 25.6581 50.3341 25.7827C50.5192 25.9023 50.8068 25.9621 51.197 25.9621H53.6584C54.1237 25.9621 54.444 25.875 54.619 25.7005C54.7941 25.526 54.8817 25.2071 54.8817 24.7436C54.8817 24.2751 54.7941 23.9536 54.619 23.7791C54.444 23.6047 54.1237 23.5175 53.6584 23.5175H51.227C50.5767 23.5175 50.0915 23.363 49.7712 23.0539C49.456 22.7399 49.2985 22.259 49.2985 21.611C49.2985 20.9481 49.456 20.4622 49.7712 20.1532C50.0864 19.8392 50.5717 19.6821 51.227 19.6821H53.5834C54.7141 19.6821 55.3419 20.1806 55.467 21.1774C55.487 21.307 55.4595 21.4092 55.3844 21.4839C55.3145 21.5537 55.2144 21.5886 55.0843 21.5886C54.9592 21.5886 54.8642 21.5562 54.7991 21.4914C54.7391 21.4266 54.6965 21.3319 54.6716 21.2073C54.6365 20.9282 54.534 20.7363 54.3638 20.6317C54.1987 20.522 53.9386 20.4672 53.5834 20.4672H51.227C50.7918 20.4672 50.4916 20.5469 50.3265 20.7064C50.1665 20.8659 50.0864 21.1675 50.0864 21.611C50.0864 22.0347 50.169 22.3287 50.3341 22.4932C50.4992 22.6527 50.7969 22.7324 51.227 22.7324H53.6584C54.3488 22.7324 54.8566 22.8969 55.1819 23.2258C55.507 23.5498 55.6696 24.0557 55.6696 24.7436C55.6696 25.4264 55.507 25.9322 55.1819 26.2612C54.8566 26.5852 54.3488 26.7472 53.6584 26.7472H51.197Z" fill="white"/>
</svg>
