<svg width="284" height="284" viewBox="0 0 284 284" fill="none" xmlns="http://www.w3.org/2000/svg">
<g clip-path="url(#clip0_653_39168)">
<rect width="284" height="284" fill="#F9FAFB"/>
<path opacity="0.4" d="M162 147.405V150.172C162 150.631 161.98 151.094 161.94 151.553C161.379 157.871 156.99 162 150.657 162H133.343C130.136 162 127.431 160.959 125.487 159.073C124.725 158.373 124.084 157.551 123.583 156.608C124.244 155.804 124.986 154.924 125.707 154.042C126.93 152.578 128.112 151.132 128.854 150.192C129.956 148.828 132.862 145.239 136.89 146.923C137.711 147.264 138.433 147.746 139.094 148.167C140.717 149.249 141.399 149.57 142.541 148.949C143.803 148.267 144.625 146.923 145.487 145.52C145.948 144.776 146.409 144.056 146.91 143.394C149.094 140.547 152.461 139.785 155.266 141.47C156.669 142.312 157.872 143.374 158.994 144.455C159.234 144.696 159.475 144.918 159.695 145.139C159.996 145.44 160.998 146.442 162 147.405Z" fill="#6B7280"/>
<path d="M150.677 122H133.343C126.549 122 122 126.752 122 133.828V150.172C122 152.636 122.561 154.824 123.583 156.608C124.244 155.804 124.986 154.924 125.707 154.04C126.93 152.578 128.112 151.132 128.854 150.192C129.956 148.829 132.862 145.239 136.89 146.924C137.711 147.265 138.433 147.746 139.094 148.167C140.717 149.25 141.399 149.57 142.541 148.947C143.804 148.267 144.625 146.924 145.487 145.518C145.948 144.776 146.409 144.056 146.91 143.395C149.094 140.547 152.461 139.785 155.267 141.47C156.669 142.312 157.872 143.375 158.994 144.455C159.234 144.696 159.475 144.919 159.695 145.139C159.996 145.438 160.998 146.44 162 147.405V133.828C162 126.752 157.451 122 150.677 122Z" fill="#E5E7EB"/>
<path opacity="0.4" d="M140.909 135.593C140.909 138.411 138.562 140.757 135.746 140.757C132.933 140.757 130.586 138.411 130.586 135.593C130.586 132.778 132.933 130.43 135.746 130.43C138.562 130.43 140.909 132.778 140.909 135.593Z" fill="#6B7280"/>
</g>
<rect x="1" y="1" width="282" height="282" stroke="#6B7280" stroke-width="2"/>
<defs>
<clipPath id="clip0_653_39168">
<rect width="284" height="284" fill="white"/>
</clipPath>
</defs>
</svg>
