<svg width="41" height="40" viewBox="0 0 41 40" fill="none" xmlns="http://www.w3.org/2000/svg">
<path d="M33.8337 14.8999C33.8163 14.7468 33.7828 14.596 33.7337 14.4499V14.2999C33.6535 14.1286 33.5466 13.971 33.417 13.8333V13.8333L23.417 3.83325C23.2792 3.70361 23.1217 3.59672 22.9503 3.51659C22.9006 3.50952 22.8501 3.50952 22.8003 3.51659C22.631 3.41949 22.444 3.35716 22.2503 3.33325H12.167C10.8409 3.33325 9.56914 3.86004 8.63146 4.79772C7.69378 5.7354 7.16699 7.00717 7.16699 8.33325V31.6666C7.16699 32.9927 7.69378 34.2644 8.63146 35.2021C9.56914 36.1398 10.8409 36.6666 12.167 36.6666H28.8337C30.1597 36.6666 31.4315 36.1398 32.3692 35.2021C33.3069 34.2644 33.8337 32.9927 33.8337 31.6666V14.9999C33.8337 14.9999 33.8337 14.9999 33.8337 14.8999ZM23.8337 9.01659L28.1503 13.3333H25.5003C25.0583 13.3333 24.6344 13.1577 24.3218 12.8451C24.0093 12.5325 23.8337 12.1086 23.8337 11.6666V9.01659ZM30.5003 31.6666C30.5003 32.1086 30.3247 32.5325 30.0122 32.8451C29.6996 33.1577 29.2757 33.3333 28.8337 33.3333H12.167C11.725 33.3333 11.301 33.1577 10.9885 32.8451C10.6759 32.5325 10.5003 32.1086 10.5003 31.6666V8.33325C10.5003 7.89122 10.6759 7.4673 10.9885 7.15474C11.301 6.84218 11.725 6.66659 12.167 6.66659H20.5003V11.6666C20.5003 12.9927 21.0271 14.2644 21.9648 15.2021C22.9025 16.1398 24.1742 16.6666 25.5003 16.6666H30.5003V31.6666ZM24.317 20.4833L18.8337 25.9833L16.6837 23.8166C16.3698 23.5027 15.9442 23.3264 15.5003 23.3264C15.0565 23.3264 14.6308 23.5027 14.317 23.8166C14.0032 24.1304 13.8268 24.5561 13.8268 24.9999C13.8268 25.4438 14.0032 25.8694 14.317 26.1833L17.6503 29.5166C17.8053 29.6728 17.9896 29.7968 18.1927 29.8814C18.3958 29.966 18.6136 30.0096 18.8337 30.0096C19.0537 30.0096 19.2715 29.966 19.4746 29.8814C19.6777 29.7968 19.8621 29.6728 20.017 29.5166L26.6837 22.8499C26.9975 22.5361 27.1738 22.1104 27.1738 21.6666C27.1738 21.2228 26.9975 20.7971 26.6837 20.4833C26.3698 20.1694 25.9442 19.9931 25.5003 19.9931C25.0565 19.9931 24.6308 20.1694 24.317 20.4833V20.4833Z" fill="#34F1A2"/>
</svg>
